<svg xmlns="http://www.w3.org/2000/svg" viewBox="0 0 64 64">
  <defs>
    <linearGradient id="noxpayIcon" x1="0%" y1="0%" x2="100%" y2="100%">
      <stop offset="0%" stop-color="#F5EFE1"/>
      <stop offset="55%" stop-color="#D8D1C2"/>
      <stop offset="100%" stop-color="#98A18E"/>
    </linearGradient>
  </defs>
  <rect width="64" height="64" rx="14" fill="#2E4B30"/>
  <path d="M13 16c0-2.2 1.8-4 4-4h12.2c2.4 0 4.7 1 6.3 2.8L51 31.4c1.5 1.6 1.5 4 0 5.6L35.5 53.2A8.6 8.6 0 0 1 29.2 56H17a4 4 0 0 1-4-4z" fill="none" stroke="url(#noxpayIcon)" stroke-width="4.5" stroke-linejoin="round"/>
  <path d="M22 22.5h6.2c1.8 0 3.5.8 4.7 2.1l10.6 11.4-10.6 11.4a6.3 6.3 0 0 1-4.7 2.1H22z" fill="url(#noxpayIcon)"/>
  <circle cx="24" cy="32" r="4.3" fill="#243A26"/>
</svg>
